<?xml version="1.0" encoding="utf-8"?>
<!-- Generator: Adobe Illustrator 19.0.0, SVG Export Plug-In . SVG Version: 6.00 Build 0)  -->
<svg version="1.1" id="Layer_1" xmlns="http://www.w3.org/2000/svg" xmlns:xlink="http://www.w3.org/1999/xlink" x="0px" y="0px"
	 viewBox="0 0 100 100" style="enable-background:new 0 0 100 100;" xml:space="preserve">
<style type="text/css">
	.st0{fill:#FBAE17;}
	.st1{fill:#B27500;}
</style>
<g id="XMLID_29_">
	<polygon id="XMLID_45_" class="st0" points="61.1,1 61.1,33.7 43.8,23.8 26.6,33.7 26.6,20.9 	"/>
	<polygon id="XMLID_44_" class="st1" points="95.5,20.9 95.5,100 78.3,100 78.3,43.7 61.1,33.7 61.1,1 	"/>
	<path id="XMLID_33_" class="st1" d="M49.6,33.7V100h23V47L49.6,33.7z M56.2,64.2L53,62.3v-4.8l3.2,1.9V64.2z M56.2,55.3L53,53.4
		v-4.8l3.2,1.9V55.3z M56.2,46.4L53,44.5v-4.8l3.2,1.9V46.4z M62.7,67.9L59.4,66v-4.8l3.2,1.9V67.9z M62.7,59l-3.2-1.9v-4.8l3.2,1.9
		V59z M62.7,50.1l-3.2-1.9v-4.8l3.2,1.9V50.1z M69.1,71.6l-3.2-1.9v-4.8l3.2,1.9V71.6z M69.1,62.7l-3.2-1.9V56l3.2,1.9V62.7z
		 M69.1,53.8l-3.2-1.9v-4.8l3.2,1.9V53.8z"/>
	<polygon id="XMLID_32_" class="st0" points="23.9,50.8 23.9,100 4,100 4,62.3 	"/>
	<polygon id="XMLID_31_" class="st1" points="43.8,62.3 43.8,100 23.9,100 23.9,50.8 	"/>
	<polygon id="XMLID_30_" class="st0" points="23.9,46.8 38.1,55 38.1,33.7 15.1,47 15.1,51.9 	"/>
</g>
</svg>
