<?xml version="1.0" encoding="utf-8"?>
<!-- Generator: Adobe Illustrator 19.0.0, SVG Export Plug-In . SVG Version: 6.00 Build 0)  -->
<svg version="1.1" id="Layer_1" xmlns="http://www.w3.org/2000/svg" xmlns:xlink="http://www.w3.org/1999/xlink" x="0px" y="0px"
	 viewBox="-374.5 984 511.5 164.5" style="enable-background:new -374.5 984 511.5 164.5;" xml:space="preserve">
<style type="text/css">
	.st0{fill:#FDB302;}
</style>
<g>
	<rect x="-154.8" y="1003.6" class="st0" width="73.8" height="73.9"/>
	<g>
		<path d="M-155,1077.4c0-1.1,0-2,0-2.9c0-14.8,0.1-29.7,0-44.5c0-2.5,0.5-4.5,2.5-6.3c1.3-1.1,2.2-2.8,3.3-4.2
			c0.3,0.2,0.7,0.5,1,0.7c0,14.8,0,29.6,0,44.4c3.6-2.9,7.1-5.1,6.8-10.7c-0.6-11.4-0.1-22.8-0.2-34.1c0-2.5,0.7-3.2,3.2-3.2
			c11.4,0.1,22.8-0.3,34.1,0.2c5.3,0.2,7.7-2.8,11-6.4c-15.3,0-30.1,0-44.9,0c1.3-3.7,5.8-7,9.2-7c15.1,0,30.1,0,45.2,0
			c0.8,0,1.6,0,2.8,0c0,1.2,0,2.1,0,3.1c0,14.7-0.1,29.3,0.1,44c0,3-0.5,5.4-3,7.3c-1.2,0.9-2.2,2.1-3.3,3.1
			c-0.3-0.1-0.6-0.2-0.9-0.3c0-7.3-0.1-14.6-0.1-21.9c0-7.4,0-14.7,0-22.1c-3,1-6,4.9-6,7.8c0,12.1,0,24.2,0,36.4
			c0,3.4,0,3.4-3.4,3.4c-11.5,0-23.1,0.2-34.6-0.1c-3.2-0.1-5.5,0.6-7.5,3.1c-0.8,1-1.8,1.9-3,3.2c15.4,0,30.2,0,45.1,0
			c-2.9,3.3-4.7,7.2-10.2,7c-14.6-0.4-29.3-0.1-44-0.1C-152.9,1077.5-153.8,1077.4-155,1077.4z M-128.6,1056.9
			c0.1,0,0.2,0.2,0.3,0.2c8.3,0,16.7-0.1,25-0.1c1.7,0,1.8-1,1.8-2.3c0-9.4,0-18.8,0-28.2c0-1.8-0.6-2.5-2.4-2.5
			c-9.4,0.1-18.8,0.1-28.2,0c-1.7,0-2.3,0.6-2.3,2.3c0.1,4.3,0,8.7,0,13c0,3.9,0,7.8,0,11.7c0.3,0.2,0.5,0.3,0.8,0.5
			c1.4-1.6,2.8-3.3,4.4-4.8c1.3-1.2,1.8-2.5,1.7-4.3c-0.1-3.1,0-6.2,0-9.3c0-1.4,0.4-2.2,2-2.2c5.2,0,10.3,0,15.5,0.1
			c0.6,0,1.7,1,1.7,1.5c0.1,5.7,0.1,11.4,0.1,17.5c-3.7,0-7.1,0-10.5,0c-1.2,0-2.7-0.1-3.5,0.5
			C-124.6,1052.5-126.6,1054.8-128.6,1056.9z"/>
		<path d="M-154.8,1003.6c4.4,0,8.6,0,12.8,0c-4.2,4.3-8.4,8.6-12.8,13.1C-154.8,1012.2-154.8,1008.1-154.8,1003.6z"/>
		<path d="M-81,1064.6c0,3.8,0.1,7.6-0.1,11.5c0,0.5-1,1.4-1.6,1.4c-3.7,0.1-7.3,0.1-11.5-0.5c4.2-4.2,8.4-8.5,12.6-12.7
			C-81.4,1064.4-81.2,1064.5-81,1064.6z"/>
	</g>
</g>
<g>
	<path d="M-152.4,1123.8c0.7-5.3,1.3-10.6,2-16c0.3-2.7,0.6-5.4,0.9-8.1c0.3-3.7,3.2-2.2,5.1-2.5c1.9-0.2,3.5,0,3.4,2.6
		c-0.1,12.8-0.1,25.5-0.2,38.3c0,0.2-0.2,0.4-0.4,0.9c-1.1,0-2.3,0-4,0c0-8.5,0-16.9,0-25.4c-0.3,0-0.7,0-1-0.1
		c-1,7.2-2,14.3-2.9,21.5c-0.6,4.7-0.6,4.7-5.8,3.7c-1.2-8.9-2.4-18-3.7-27c-0.3,0-0.5,0-0.8,0.1c0,8,0,16.1,0,24.1
		c0,1.1-0.4,2.8-1.1,3.1c-1.6,0.6-3.5,0.7-3.5-2.1c0-12.4,0-24.8,0-37.2c0-2.7,1.8-2.5,3.6-2.4c2.2,0,4.8-0.9,5.2,2.9
		c0.7,7.1,1.5,14.3,2.3,21.4c0.1,0.7,0.2,1.5,0.3,2.2C-152.9,1123.7-152.6,1123.8-152.4,1123.8z"/>
	<path d="M-109.5,1115c0,7.9,0,15.7,0,23.9c-1.7,0-3.1,0-4.7,0c-0.1-0.9-0.3-1.7-0.3-2.6c0-11.9,0-23.7,0-35.6
		c0-1.8-0.1-3.5,2.6-3.5c2.1,0.1,4.1-0.3,4.7,2.7c1.3,6.8,3,13.5,4.5,20.2c0.2,0.8,0.5,1.5,1.5,2.2c0-8.2,0-16.4,0-24.8
		c1.7,0,3.1,0,4.7,0c0,13.9,0,27.6,0,41.2c-6,1.1-6,1-7.3-4.3c-1.6-6.5-3.2-13.1-4.8-19.6C-109,1114.9-109.3,1115-109.5,1115z"/>
	<path d="M-201.7,1139c-0.1-1.1-0.4-1.9-0.4-2.8c0-11.9,0-23.8,0-35.6c0-2.5,0.6-3.7,3.3-3.4c2.8,0.2,5.7,0.2,8.5,0.2
		c3.3,0,5.2,1.8,5.3,5c0.1,10.5,0.1,21,0,31.5c0,3.2-2,5-5.2,5.1C-193.9,1139.1-197.8,1139-201.7,1139z M-195.9,1133.9
		c4,0.9,5.4-0.5,5.4-4.1c-0.1-7.7,0-15.4-0.1-23c0-4.3-0.4-4.6-5.3-4C-195.9,1113-195.9,1123.4-195.9,1133.9z"/>
	<path d="M-13.3,1139c-1.9,0-3.1,0-4.7,0c-0.1-1.2-0.3-2.2-0.3-3.3c0-11.6,0-23.3,0-34.9c0-1.7-0.3-3.6,2.4-3.6
		c2.2,0,4.3-0.4,4.8,2.9c1.1,6.2,2.7,12.3,4.1,18.4c0.3,1.3,0.7,2.5,1.7,3.7c0-7.3,0-14.5,0-21.8c0-1.9,0.2-3.7,2.7-3.2
		c0.9,0.2,2.3,1.3,2.3,2c0.1,13.1,0.1,26.2,0.1,39.2c-5.8,1.4-6.1,1.3-7.4-4c-1.6-6.6-3.2-13.1-5.7-19.6
		C-13.3,1122.8-13.3,1130.7-13.3,1139z"/>
	<path d="M-40.1,1118.3c0-5.1-0.1-10.2,0-15.2c0.2-4.7,1.7-6.1,6.4-6.3c9.7-0.5,10.9,0.7,10.9,10.5c0,7.9,0.1,15.9,0,23.8
		c0,2.9,0.5,6.9-2.9,7.7c-3.9,0.8-8.2,0.3-12.2-0.4c-1-0.2-1.9-3.3-2-5.1C-40.3,1128.3-40.1,1123.3-40.1,1118.3L-40.1,1118.3z
		 M-34.3,1118.2c0,4.3,0,8.7,0,13c0,1.9,0.6,3.8,2.9,3.2c1.1-0.3,2.6-2,2.6-3.1c0.2-8.6,0.1-17.3,0.1-26c0-1.9-0.5-3.5-2.9-3.4
		c-2.5,0.1-2.7,1.8-2.7,3.6C-34.3,1109.8-34.3,1114-34.3,1118.2z"/>
	<path d="M-119.3,1138.9c-2.3,0-3.8,0-5.8,0c0-3,0-5.8,0-8.8c-1.9-0.1-3.3-0.2-5.2-0.2c-0.2,3.1-0.3,5.9-0.5,9.1c-1.7,0-3.3,0-4.8,0
		c-0.2-0.3-0.5-0.5-0.5-0.6c0-12.2-0.1-24.5,0-36.7c0-2.9,1.9-4.4,4.7-4.7c0.4,0,0.7-0.1,1.1-0.1c9.4-0.6,10.9,0.8,10.9,10.1
		s0,18.5,0,27.8C-119.3,1136-119.3,1137.3-119.3,1138.9z M-125.1,1124.9c0-7.1,0.1-13.7-0.1-20.4c0-0.9-1.5-2.3-2.5-2.4
		c-0.8-0.1-2.6,1.3-2.6,2.1c-0.2,6.9-0.1,13.7-0.1,20.7C-128.5,1124.9-127.1,1124.9-125.1,1124.9z"/>
	<path d="M-227,1129.9c0,3.3,0,6,0,9.1c-1.9,0.1-3.6,0.2-5.4,0.3c-0.2-0.9-0.4-1.6-0.4-2.3c0-10.9-0.1-21.8,0-32.7
		c0-6.1,1.6-7.4,7.9-7.5c7.1,0,8.8,1.2,8.9,7.3c0.1,11.5,0,23,0,34.9c-1.9,0.1-3.5,0.2-5.6,0.3c0-3.1,0-5.8,0-9
		C-223.5,1130.1-225,1130-227,1129.9z M-221.8,1124.9c0-7,0.1-13.7-0.1-20.3c0-0.9-1.5-2.4-2.4-2.5c-0.8-0.1-2.6,1.3-2.7,2
		c-0.2,6.9-0.1,13.7-0.1,20.7C-225.2,1124.9-223.7,1124.9-221.8,1124.9z"/>
	<path d="M-276.7,1139c-2.1,0-3.7,0-5.6,0c-0.1-2.9-0.3-5.7-0.4-8.4c-5-1.3-5.3-1.1-5.3,4.1c0,5-0.3,5.2-5.5,3.9
		c0-12.2-0.1-24.4,0-36.6c0-3.3,2-5.2,5.5-5.2c1,0,2-0.1,3-0.1c6.8,0,8.3,1.4,8.3,8.3C-276.7,1116.2-276.7,1127.4-276.7,1139z
		 M-282.6,1124.8c0-7,0.1-13.8-0.1-20.5c0-0.8-1.7-2.2-2.6-2.2c-0.9,0-2.5,1.4-2.5,2.3c-0.2,6.7-0.1,13.5-0.1,20.4
		C-286.1,1124.8-284.6,1124.8-282.6,1124.8z"/>
	<path d="M-257.3,1115.8c5.1,7.3,1.4,15.4,2.8,23.2c-2.3,0-3.9,0-6.1,0c0-5.6,0-11,0-16.4c0-4.1-0.8-4.5-5.5-3.7
		c0,5.2,0,10.5,0,15.8c0,5-0.1,5.1-5.6,4.1c-0.1-0.8-0.3-1.6-0.3-2.4c0-11.9,0-23.8-0.1-35.6c0-2.5,0.6-3.7,3.3-3.5
		c2.8,0.2,5.7,0.2,8.5,0.2c3.3,0,5.2,1.9,5.3,5C-254.8,1107-253.1,1112.1-257.3,1115.8z M-266.1,1102.8c0,2.7-0.2,5.5,0.1,8.2
		c0.1,0.9,1.6,2.6,2,2.5c1.3-0.4,2.8-1.3,3.3-2.3c0.6-1.4,0.2-3.1,0.2-4.7C-260.7,1102.5-261.2,1102.1-266.1,1102.8z"/>
	<path d="M57.3,1116.2c3,3.2,3.9,13.1,2.3,22.8c-1.6,0-3.3,0-5.4,0c0-5.3,0-10.3,0-15.3c0-1.1,0.3-2.5-0.2-3.3
		c-0.8-1-2.2-1.7-3.4-1.9c-0.5-0.1-1.8,1.5-1.8,2.3c-0.2,5.9-0.1,11.8-0.1,18c-2,0-3.6,0-5.5,0c-0.1-1-0.3-1.9-0.3-2.9
		c0-11.7,0.1-23.5-0.1-35.2c0-2.7,0.8-3.8,3.6-3.6c2.9,0.3,6-0.2,8.9,0.4c1.7,0.4,4.1,2.2,4.3,3.6
		C60.2,1106.4,61.6,1111.8,57.3,1116.2z M48.6,1102.7c0,3-0.2,5.8,0.1,8.6c0.1,0.9,1.5,2.5,2.1,2.4c1.2-0.2,2.6-1.2,3.1-2.2
		c0.6-1.2,0.3-2.9,0.2-4.4C54.1,1102.6,53.8,1102.3,48.6,1102.7z"/>
	<path d="M64.6,1097.5c2,0,3.6,0,5.7,0c0,4,0,7.8,0,11.6c0,6.9,0,13.9,0,20.8c0,2.1-0.3,4.6,2.9,4.6c3.3,0,2.6-2.7,2.6-4.7
		c0.1-9.5,0-19.1,0-28.6c0-1.9-0.5-4,2.7-4c3.1,0,2.9,1.7,2.9,3.8c0,10.1,0,20.3-0.1,30.4c0,2.8,0.4,6.6-2.9,7.3
		c-3.8,0.8-8,0.2-11.9-0.3c-0.8-0.1-1.9-2.4-2-3.7C64.6,1122.5,64.6,1110.1,64.6,1097.5z"/>
	<path d="M-80.5,1134.2c0-6.4,0-12.5,0-19c1.9,0,3.5,0,5.7,0c0,7.5,0,14.9-0.1,22.3c0,0.6-0.8,1.4-1.4,1.7c-0.6,0.3-1.4,0.3-2.2,0.4
		c-12,1.1-13.4-0.2-13.4-12.2c0-7.8,0-15.6,0.1-23.4c0-2.7,0.1-6.3,3.4-6.7c3.9-0.5,8.6-0.7,11.6,1.2c2.1,1.3,1.9,6.3,2.8,10.2
		c-2.7,0.1-4.3,0.2-6.2,0.3c-0.1-1.3-0.2-2.2-0.2-3.2c-0.1-1.9,0.1-3.9-2.7-4c-3,0-2.8,2.2-2.9,4.2c0,5.1,0,10.1,0,15.2
		c0,3,0,5.9,0,8.9C-85.9,1134.4-85.4,1134.8-80.5,1134.2z"/>
	<path d="M92.2,1138.9c-2.2,0-3.9,0-5.8,0c0-13.8,0-27.5,0-41.4c1.8,0,3.5,0,5.7,0c0,4.7,0,9.3,0,13.9c0.4,0.1,0.7,0.1,1.1,0.2
		c1.1-3.4,2.6-6.8,3.4-10.3c0.9-4,3.1-5,7.3-3.6c-1.5,4.2-2.9,8.5-4.5,12.7c-1.2,2.9-1.2,5.6-0.2,8.6c2.1,6.5,3.8,13,5.7,19.6
		c-5.7,1.4-6,1.2-7.3-4c-1.3-5-2.7-10-4-15c0-0.2-0.3-0.3-1.1-0.8C92.2,1125.6,92.2,1132.2,92.2,1138.9z"/>
	<path d="M107.6,1122.9c2.2,0,3.8,0,5.8,0c0,3-0.2,5.8,0.1,8.6c0.1,1.1,1.5,2,2.3,3c1-1,2.6-1.9,2.8-3c0.4-2.5,0.5-5.3,0-7.7
		c-0.4-1.6-1.8-3.5-3.3-4.3c-7.6-4.5-10.1-10.6-7.5-19.2c0.1-0.2,0.1-0.5,0.2-0.7c3-4.6,7.5-2.6,11.5-2.7c2.9,0,4.4,2,4.6,4.9
		c0.1,1.5,0.2,3,0.2,4.4c0,4.7-0.2,4.9-5.7,3.8c0-1.7,0.3-3.6-0.1-5.3c-0.3-1.1-1.7-1.9-2.6-2.8c-0.9,0.9-2.4,1.7-2.5,2.8
		c-0.9,4.8,0,8.7,5.3,10.6c4.4,1.5,6.2,4.9,5.8,9.6c-0.2,3.1-0.1,6.2-0.2,9.3c-0.1,3.3-1.8,5.3-5.3,5.4c-0.5,0-1,0.1-1.5,0.1
		c-8.5,0.4-10-1-10.1-9.5C107.6,1127.9,107.6,1125.6,107.6,1122.9z"/>
	<path d="M-55.2,1118.8c0,6.6,0,13.3,0,20.2c-2,0-3.6,0-5.6,0c0-13.8,0-27.4,0-41.4c1.8,0,3.5,0,5.7,0c0,4.8,0,9.4,0,13.9
		c0.3,0,0.7,0.1,1,0.1c1.1-3.4,2.3-6.9,3.4-10.3c1.5-4.6,1.7-4.6,7.1-3.5c-1.6,4.6-3.3,9-4.6,13.6c-0.6,2-0.8,4.4-0.3,6.4
		c1.7,6.9,3.8,13.8,5.8,20.7c-5.4,1.6-6,1.3-7.3-3.8c-1.4-5.3-2.8-10.7-4.2-16C-54.5,1118.7-54.8,1118.7-55.2,1118.8z"/>
	<path d="M4.5,1122.9c2.1,0,3.5,0,5.7,0c0,2.7,0,5.3,0,8c0,1.8,0.1,3.6,2.6,3.7c2.7,0.1,2.8-1.8,2.8-3.8c0-0.7-0.1-1.5,0-2.2
		c0.8-5.1-0.8-8.8-6-10.7c-3.9-1.4-5.7-4.6-5.3-8.8c0.1-0.6,0-1.2,0-1.9c0-9.8,3.1-12.5,12.8-10.1c1.6,0.4,3.1,2.5,4,4.2
		c0.7,1.3,0.3,3.2,0.3,4.8c0.1,5-0.2,5.2-5.8,4c0-1.8,0.3-3.8-0.1-5.7c-0.2-0.9-1.6-2.3-2.5-2.2c-0.9,0-2.4,1.3-2.6,2.2
		c-1.2,5.9-0.4,7.9,5.2,10.6c4.5,2.2,6.6,5.3,6.2,10.2c-0.3,3.2-0.1,6.4-0.3,9.6c-0.1,2.8-1.8,4.2-4.4,4.7c-0.7,0.1-1.5,0.2-2.2,0.2
		c-8.7,0.4-10.2-1-10.2-9.8C4.5,1127.7,4.5,1125.5,4.5,1122.9z"/>
	<path d="M-296.8,1138.7c-5.8,1.1-5.9,1.1-7.3-4.3c-1.3-5.1-2.7-10.2-4-15.3c-0.3,0-0.7,0.1-1,0.1c0,6.5,0,13.1,0,19.8
		c-2.1,0-3.7,0-5.5,0c-0.1-1.1-0.3-2-0.3-3c0-11.8,0-23.5,0-35.3c0-2.1,0.1-3.5,2.9-3.5s2.9,1.6,2.9,3.5c0,3.5,0,7,0,10.6
		c0.3,0,0.7,0.1,1,0.1c1.1-3.4,2.2-6.7,3.3-10.1c1.5-4.6,1.8-4.8,7.3-3.6c-1.6,4.4-3.4,8.8-4.6,13.2c-0.6,2.3-0.8,5.1-0.2,7.4
		c1.4,5.9,3.3,11.6,5,17.5C-297.1,1136.8-297,1137.8-296.8,1138.7z"/>
	<path d="M-370.8,1097.5c4.4,0,8.5-0.1,12.6,0c2.6,0.1,4.1,1.8,4.2,4.3c0.1,5.4,0.1,10.9,0,16.3c-0.1,2.9-1.8,4.5-4.7,4.8
		c-2,0.2-3.9,0.3-6.4,0.6c0,5.1,0,10.1,0,15.4c-2.2,0-3.8,0-5.7,0C-370.8,1125.2-370.8,1111.5-370.8,1097.5z M-365.2,1118.1
		c2.5,0.4,5,1.3,5.3-1.9c0.4-3.9,0.3-7.9,0-11.8c-0.1-0.7-1.9-1.7-2.9-1.8c-0.7-0.1-2.3,1.1-2.3,1.8
		C-365.3,1108.9-365.2,1113.5-365.2,1118.1z"/>
	<path d="M-240.9,1139c-2.5,0-4.1,0-6.3,0c1.9-14.4-3.2-27.6-5.7-41.2c5.3-1.2,5.7-0.9,6.4,4.1c0.7,4.3,1.4,8.6,3,12.8
		c0.8-4.5,1.5-9,2.3-13.4c0.7-4.4,0.9-4.5,6-3.6C-237.5,1111.3-242.9,1124.5-240.9,1139z"/>
	<path d="M-168.8,1101.7c-1.7,0.2-3.3,0.4-5.2,0.6c0,2,0,3.9,0,6c1.8,0.1,3.3,0.3,5.2,0.4c0,1.3,0,2.6,0,4.1
		c-1.6,0.1-3.2,0.3-5.1,0.4c0,6.9,0,13.7,0,20.7c1.7,0.2,3.4,0.4,5.3,0.6c0,1.4,0,2.7,0,4.3c-3.6,0-7.3,0-11.1,0
		c-0.1-0.7-0.4-1.4-0.4-2c0-12.1,0.1-24.2-0.1-36.3c0-2.7,1-3.5,3.5-3.3c1.6,0.1,3.2,0.1,4.8,0
		C-168.4,1096.9-167.9,1098.7-168.8,1101.7z"/>
	<path d="M-346.8,1102.4c-1.8-0.2-3.1-0.4-4.5-0.6c0-1.3,0-2.6,0-4.6c4.3,0,8.8-0.2,13.1,0.2c0.8,0.1,1.5,2.3,2.5,4
		c-2.3,0.4-3.4,0.7-5.2,1c0,12,0,24.2,0,36.6c-2.2,0-3.7,0-6,0C-346.8,1126.7-346.8,1114.6-346.8,1102.4z"/>
	<path d="M35,1138.9c-1.4,0.1-2.1,0.3-2.8,0.3c-0.9,0-1.7-0.1-3-0.2c-0.1-1.4-0.2-2.7-0.2-4c0-9.4-0.1-18.8,0-28.2
		c0.1-3.2-0.3-5.4-4.1-5c-1-4.4-0.9-4.6,3.4-4.6c3.5,0,7.1,0,10.8,0c0,1.8,0,3.1,0,4.6c-1.4,0.2-2.6,0.4-4.2,0.6
		C35,1114.5,35,1126.5,35,1138.9z"/>
	<path d="M134.8,1097.7c0,13.6,0,27.3,0,40.9c-5.4,1.2-5.7,1-5.6-4.2c0-10.9,0-21.8,0-32.7C129.2,1096.9,129.5,1096.7,134.8,1097.7z
		"/>
	<path d="M-334.2,1132.7c5.3-0.4,5.7,0.2,4.5,6.3c-1.4,0-2.8,0-4.5,0C-334.2,1136.8-334.2,1134.8-334.2,1132.7z"/>
</g>
</svg>
