<?xml version="1.0" encoding="utf-8"?>
<!-- Generator: Adobe Illustrator 19.0.0, SVG Export Plug-In . SVG Version: 6.00 Build 0)  -->
<svg version="1.1" id="Layer_1" xmlns="http://www.w3.org/2000/svg" xmlns:xlink="http://www.w3.org/1999/xlink" x="0px" y="0px"
	 viewBox="0 0 603 82" style="enable-background:new 0 0 603 82;" xml:space="preserve">
<style type="text/css">
	.st0{fill:#FDB302;}
</style>
<g>
	<path class="st0" d="M5,78.4c0-1.1,0-2,0-2.9C5,60.7,5.1,45.8,5,31c0-2.5,0.5-4.5,2.5-6.3c1.3-1.1,2.2-2.8,3.3-4.2
		c0.3,0.2,0.7,0.5,1,0.7c0,14.8,0,29.6,0,44.4c3.6-2.9,7.1-5.1,6.8-10.7c-0.6-11.4-0.1-22.8-0.2-34.1c0-2.5,0.7-3.2,3.2-3.2
		c11.4,0.1,22.8-0.3,34.1,0.2c5.3,0.2,7.7-2.8,11-6.4c-15.3,0-30.1,0-44.9,0c1.3-3.7,5.8-7,9.2-7c15.1,0,30.1,0,45.2,0
		c0.8,0,1.6,0,2.8,0c0,1.2,0,2.1,0,3.1c0,14.7-0.1,29.3,0.1,44c0,3-0.5,5.4-3,7.3c-1.2,0.9-2.2,2.1-3.3,3.1
		c-0.3-0.1-0.6-0.2-0.9-0.3c0-7.3-0.1-14.6-0.1-21.9c0-7.4,0-14.7,0-22.1c-3,1-6,4.9-6,7.8c0,12.1,0,24.2,0,36.4
		c0,3.4,0,3.4-3.4,3.4c-11.5,0-23.1,0.2-34.6-0.1c-3.2-0.1-5.5,0.6-7.5,3.1c-0.8,1-1.8,1.9-3,3.2c15.4,0,30.2,0,45.1,0
		c-2.9,3.3-4.7,7.2-10.2,7c-14.6-0.4-29.3-0.1-44-0.1C7.1,78.5,6.2,78.4,5,78.4z M31.4,57.9c0.1,0,0.2,0.2,0.3,0.2
		c8.3,0,16.7-0.1,25-0.1c1.7,0,1.8-1,1.8-2.3c0-9.4,0-18.8,0-28.2c0-1.8-0.6-2.5-2.4-2.5c-9.4,0.1-18.8,0.1-28.2,0
		c-1.7,0-2.3,0.6-2.3,2.3c0.1,4.3,0,8.7,0,13c0,3.9,0,7.8,0,11.7c0.3,0.2,0.5,0.3,0.8,0.5c1.4-1.6,2.8-3.3,4.4-4.8
		c1.3-1.2,1.8-2.5,1.7-4.3c-0.1-3.1,0-6.2,0-9.3c0-1.4,0.4-2.2,2-2.2c5.2,0,10.3,0,15.5,0.1c0.6,0,1.7,1,1.7,1.5
		c0.1,5.7,0.1,11.4,0.1,17.5c-3.7,0-7.1,0-10.5,0c-1.2,0-2.7-0.1-3.5,0.5C35.4,53.5,33.4,55.8,31.4,57.9z"/>
	<path class="st0" d="M5.2,4.6c4.4,0,8.6,0,12.8,0c-4.2,4.3-8.4,8.6-12.8,13.1C5.2,13.2,5.2,9.1,5.2,4.6z"/>
	<path class="st0" d="M79,65.6c0,3.8,0.1,7.6-0.1,11.5c0,0.5-1,1.4-1.6,1.4c-3.7,0.1-7.3,0.1-11.5-0.5c4.2-4.2,8.4-8.5,12.6-12.7
		C78.6,65.4,78.8,65.5,79,65.6z"/>
</g>
<g>
	<path class="st0" d="M313.6,47.3c0.7-5.3,1.3-10.6,2-16c0.3-2.7,0.6-5.4,0.9-8.1c0.3-3.7,3.2-2.2,5.1-2.5c1.9-0.2,3.5,0,3.4,2.6
		c-0.1,12.8-0.1,25.5-0.2,38.3c0,0.2-0.2,0.4-0.4,0.9c-1.1,0-2.3,0-4,0c0-8.5,0-16.9,0-25.4c-0.3,0-0.7,0-1-0.1
		c-1,7.2-2,14.3-2.9,21.5c-0.6,4.7-0.6,4.7-5.8,3.7c-1.2-8.9-2.4-18-3.7-27c-0.3,0-0.5,0-0.8,0.1c0,8,0,16.1,0,24.1
		c0,1.1-0.4,2.8-1.1,3.1c-1.6,0.6-3.5,0.7-3.5-2.1c0-12.4,0-24.8,0-37.2c0-2.7,1.8-2.5,3.6-2.4c2.2,0,4.8-0.9,5.2,2.9
		c0.7,7.1,1.5,14.3,2.3,21.4c0.1,0.7,0.2,1.5,0.3,2.2C313.1,47.2,313.4,47.3,313.6,47.3z"/>
	<path class="st0" d="M356.5,38.5c0,7.9,0,15.7,0,23.9c-1.7,0-3.1,0-4.7,0c-0.1-0.9-0.3-1.7-0.3-2.6c0-11.9,0-23.7,0-35.6
		c0-1.8-0.1-3.5,2.6-3.5c2.1,0.1,4.1-0.3,4.7,2.7c1.3,6.8,3,13.5,4.5,20.2c0.2,0.8,0.5,1.5,1.5,2.2c0-8.2,0-16.4,0-24.8
		c1.7,0,3.1,0,4.7,0c0,13.9,0,27.6,0,41.2c-6,1.1-6,1-7.3-4.3c-1.6-6.5-3.2-13.1-4.8-19.6C357,38.4,356.7,38.5,356.5,38.5z"/>
	<path class="st0" d="M264.3,62.5c-0.1-1.1-0.4-1.9-0.4-2.8c0-11.9,0-23.8,0-35.6c0-2.5,0.6-3.7,3.3-3.4c2.8,0.2,5.7,0.2,8.5,0.2
		c3.3,0,5.2,1.8,5.3,5c0.1,10.5,0.1,21,0,31.5c0,3.2-2,5-5.2,5.1C272.1,62.6,268.2,62.5,264.3,62.5z M270.1,57.4
		c4,0.9,5.4-0.5,5.4-4.1c-0.1-7.7,0-15.4-0.1-23c0-4.3-0.4-4.6-5.3-4C270.1,36.5,270.1,46.9,270.1,57.4z"/>
	<path class="st0" d="M452.7,62.5c-1.9,0-3.1,0-4.7,0c-0.1-1.2-0.3-2.2-0.3-3.3c0-11.6,0-23.3,0-34.9c0-1.7-0.3-3.6,2.4-3.6
		c2.2,0,4.3-0.4,4.8,2.9c1.1,6.2,2.7,12.3,4.1,18.4c0.3,1.3,0.7,2.5,1.7,3.7c0-7.3,0-14.5,0-21.8c0-1.9,0.2-3.7,2.7-3.2
		c0.9,0.2,2.3,1.3,2.3,2c0.1,13.1,0.1,26.2,0.1,39.2c-5.8,1.4-6.1,1.3-7.4-4c-1.6-6.6-3.2-13.1-5.7-19.6
		C452.7,46.3,452.7,54.2,452.7,62.5z"/>
	<path class="st0" d="M425.9,41.8c0-5.1-0.1-10.2,0-15.2c0.2-4.7,1.7-6.1,6.4-6.3c9.7-0.5,10.9,0.7,10.9,10.5c0,7.9,0.1,15.9,0,23.8
		c0,2.9,0.5,6.9-2.9,7.7c-3.9,0.8-8.2,0.3-12.2-0.4c-1-0.2-1.9-3.3-2-5.1C425.7,51.8,425.9,46.8,425.9,41.8
		C425.9,41.8,425.9,41.8,425.9,41.8z M431.7,41.7c0,4.3,0,8.7,0,13c0,1.9,0.6,3.8,2.9,3.2c1.1-0.3,2.6-2,2.6-3.1
		c0.2-8.6,0.1-17.3,0.1-26c0-1.9-0.5-3.5-2.9-3.4c-2.5,0.1-2.7,1.8-2.7,3.6C431.7,33.3,431.7,37.5,431.7,41.7z"/>
	<path class="st0" d="M346.7,62.4c-2.3,0-3.8,0-5.8,0c0-3,0-5.8,0-8.8c-1.9-0.1-3.3-0.2-5.2-0.2c-0.2,3.1-0.3,5.9-0.5,9.1
		c-1.7,0-3.3,0-4.8,0c-0.2-0.3-0.5-0.5-0.5-0.6c0-12.2-0.1-24.5,0-36.7c0-2.9,1.9-4.4,4.7-4.7c0.4,0,0.7-0.1,1.1-0.1
		c9.4-0.6,10.9,0.8,10.9,10.1c0,9.3,0,18.5,0,27.8C346.7,59.5,346.7,60.8,346.7,62.4z M340.9,48.4c0-7.1,0.1-13.7-0.1-20.4
		c0-0.9-1.5-2.3-2.5-2.4c-0.8-0.1-2.6,1.3-2.6,2.1c-0.2,6.9-0.1,13.7-0.1,20.7C337.5,48.4,338.9,48.4,340.9,48.4z"/>
	<path class="st0" d="M239,53.4c0,3.3,0,6,0,9.1c-1.9,0.1-3.6,0.2-5.4,0.3c-0.2-0.9-0.4-1.6-0.4-2.3c0-10.9-0.1-21.8,0-32.7
		c0-6.1,1.6-7.4,7.9-7.5c7.1,0,8.8,1.2,8.9,7.3c0.1,11.5,0,23,0,34.9c-1.9,0.1-3.5,0.2-5.6,0.3c0-3.1,0-5.8,0-9
		C242.5,53.6,241,53.5,239,53.4z M244.2,48.4c0-7,0.1-13.7-0.1-20.3c0-0.9-1.5-2.4-2.4-2.5c-0.8-0.1-2.6,1.3-2.7,2
		c-0.2,6.9-0.1,13.7-0.1,20.7C240.8,48.4,242.3,48.4,244.2,48.4z"/>
	<path class="st0" d="M189.3,62.5c-2.1,0-3.7,0-5.6,0c-0.1-2.9-0.3-5.7-0.4-8.4c-5-1.3-5.3-1.1-5.3,4.1c0,5-0.3,5.2-5.5,3.9
		c0-12.2-0.1-24.4,0-36.6c0-3.3,2-5.2,5.5-5.2c1,0,2-0.1,3-0.1c6.8,0,8.3,1.4,8.3,8.3C189.3,39.7,189.3,50.9,189.3,62.5z
		 M183.4,48.3c0-7,0.1-13.8-0.1-20.5c0-0.8-1.7-2.2-2.6-2.2c-0.9,0-2.5,1.4-2.5,2.3c-0.2,6.7-0.1,13.5-0.1,20.4
		C179.9,48.3,181.4,48.3,183.4,48.3z"/>
	<path class="st0" d="M208.7,39.3c5.1,7.3,1.4,15.4,2.8,23.2c-2.3,0-3.9,0-6.1,0c0-5.6,0-11,0-16.4c0-4.1-0.8-4.5-5.5-3.7
		c0,5.2,0,10.5,0,15.8c0,5-0.1,5.1-5.6,4.1c-0.1-0.8-0.3-1.6-0.3-2.4c0-11.9,0-23.8-0.1-35.6c0-2.5,0.6-3.7,3.3-3.5
		c2.8,0.2,5.7,0.2,8.5,0.2c3.3,0,5.2,1.9,5.3,5C211.2,30.5,212.9,35.6,208.7,39.3z M199.9,26.3c0,2.7-0.2,5.5,0.1,8.2
		c0.1,0.9,1.6,2.6,2,2.5c1.3-0.4,2.8-1.3,3.3-2.3c0.6-1.4,0.2-3.1,0.2-4.7C205.3,26,204.8,25.6,199.9,26.3z"/>
	<path class="st0" d="M523.3,39.7c3,3.2,3.9,13.1,2.3,22.8c-1.6,0-3.3,0-5.4,0c0-5.3,0-10.3,0-15.3c0-1.1,0.3-2.5-0.2-3.3
		c-0.8-1-2.2-1.7-3.4-1.9c-0.5-0.1-1.8,1.5-1.8,2.3c-0.2,5.9-0.1,11.8-0.1,18c-2,0-3.6,0-5.5,0c-0.1-1-0.3-1.9-0.3-2.9
		c0-11.7,0.1-23.5-0.1-35.2c0-2.7,0.8-3.8,3.6-3.6c2.9,0.3,6-0.2,8.9,0.4c1.7,0.4,4.1,2.2,4.3,3.6C526.2,29.9,527.6,35.3,523.3,39.7
		z M514.6,26.2c0,3-0.2,5.8,0.1,8.6c0.1,0.9,1.5,2.5,2.1,2.4c1.2-0.2,2.6-1.2,3.1-2.2c0.6-1.2,0.3-2.9,0.2-4.4
		C520.1,26.1,519.8,25.8,514.6,26.2z"/>
	<path class="st0" d="M530.6,21c2,0,3.6,0,5.7,0c0,4,0,7.8,0,11.6c0,6.9,0,13.9,0,20.8c0,2.1-0.3,4.6,2.9,4.6c3.3,0,2.6-2.7,2.6-4.7
		c0.1-9.5,0-19.1,0-28.6c0-1.9-0.5-4,2.7-4c3.1,0,2.9,1.7,2.9,3.8c0,10.1,0,20.3-0.1,30.4c0,2.8,0.4,6.6-2.9,7.3
		c-3.8,0.8-8,0.2-11.9-0.3c-0.8-0.1-1.9-2.4-2-3.7C530.6,46,530.6,33.6,530.6,21z"/>
	<path class="st0" d="M385.5,57.7c0-6.4,0-12.5,0-19c1.9,0,3.5,0,5.7,0c0,7.5,0,14.9-0.1,22.3c0,0.6-0.8,1.4-1.4,1.7
		c-0.6,0.3-1.4,0.3-2.2,0.4c-12,1.1-13.4-0.2-13.4-12.2c0-7.8,0-15.6,0.1-23.4c0-2.7,0.1-6.3,3.4-6.7c3.9-0.5,8.6-0.7,11.6,1.2
		c2.1,1.3,1.9,6.3,2.8,10.2c-2.7,0.1-4.3,0.2-6.2,0.3c-0.1-1.3-0.2-2.2-0.2-3.2c-0.1-1.9,0.1-3.9-2.7-4c-3,0-2.8,2.2-2.9,4.2
		c0,5.1,0,10.1,0,15.2c0,3,0,5.9,0,8.9C380.1,57.9,380.6,58.3,385.5,57.7z"/>
	<path class="st0" d="M558.2,62.4c-2.2,0-3.9,0-5.8,0c0-13.8,0-27.5,0-41.4c1.8,0,3.5,0,5.7,0c0,4.7,0,9.3,0,13.9
		c0.4,0.1,0.7,0.1,1.1,0.2c1.1-3.4,2.6-6.8,3.4-10.3c0.9-4,3.1-5,7.3-3.6c-1.5,4.2-2.9,8.5-4.5,12.7c-1.2,2.9-1.2,5.6-0.2,8.6
		c2.1,6.5,3.8,13,5.7,19.6c-5.7,1.4-6,1.2-7.3-4c-1.3-5-2.7-10-4-15c0-0.2-0.3-0.3-1.1-0.8C558.2,49.1,558.2,55.7,558.2,62.4z"/>
	<path class="st0" d="M573.6,46.4c2.2,0,3.8,0,5.8,0c0,3-0.2,5.8,0.1,8.6c0.1,1.1,1.5,2,2.3,3c1-1,2.6-1.9,2.8-3
		c0.4-2.5,0.5-5.3,0-7.7c-0.4-1.6-1.8-3.5-3.3-4.3c-7.6-4.5-10.1-10.6-7.5-19.2c0.1-0.2,0.1-0.5,0.2-0.7c3-4.6,7.5-2.6,11.5-2.7
		c2.9,0,4.4,2,4.6,4.9c0.1,1.5,0.2,3,0.2,4.4c0,4.7-0.2,4.9-5.7,3.8c0-1.7,0.3-3.6-0.1-5.3c-0.3-1.1-1.7-1.9-2.6-2.8
		c-0.9,0.9-2.4,1.7-2.5,2.8c-0.9,4.8,0,8.7,5.3,10.6c4.4,1.5,6.2,4.9,5.8,9.6c-0.2,3.1-0.1,6.2-0.2,9.3c-0.1,3.3-1.8,5.3-5.3,5.4
		c-0.5,0-1,0.1-1.5,0.1c-8.5,0.4-10-1-10.1-9.5C573.6,51.4,573.6,49.1,573.6,46.4z"/>
	<path class="st0" d="M410.8,42.3c0,6.6,0,13.3,0,20.2c-2,0-3.6,0-5.6,0c0-13.8,0-27.4,0-41.4c1.8,0,3.5,0,5.7,0c0,4.8,0,9.4,0,13.9
		c0.3,0,0.7,0.1,1,0.1c1.1-3.4,2.3-6.9,3.4-10.3c1.5-4.6,1.7-4.6,7.1-3.5c-1.6,4.6-3.3,9-4.6,13.6c-0.6,2-0.8,4.4-0.3,6.4
		c1.7,6.9,3.8,13.8,5.8,20.7c-5.4,1.6-6,1.3-7.3-3.8c-1.4-5.3-2.8-10.7-4.2-16C411.5,42.2,411.2,42.2,410.8,42.3z"/>
	<path class="st0" d="M470.5,46.4c2.1,0,3.5,0,5.7,0c0,2.7,0,5.3,0,8c0,1.8,0.1,3.6,2.6,3.7c2.7,0.1,2.8-1.8,2.8-3.8
		c0-0.7-0.1-1.5,0-2.2c0.8-5.1-0.8-8.8-6-10.7c-3.9-1.4-5.7-4.6-5.3-8.8c0.1-0.6,0-1.2,0-1.9c0-9.8,3.1-12.5,12.8-10.1
		c1.6,0.4,3.1,2.5,4,4.2c0.7,1.3,0.3,3.2,0.3,4.8c0.1,5-0.2,5.2-5.8,4c0-1.8,0.3-3.8-0.1-5.7c-0.2-0.9-1.6-2.3-2.5-2.2
		c-0.9,0-2.4,1.3-2.6,2.2c-1.2,5.9-0.4,7.9,5.2,10.6c4.5,2.2,6.6,5.3,6.2,10.2c-0.3,3.2-0.1,6.4-0.3,9.6c-0.1,2.8-1.8,4.2-4.4,4.7
		c-0.7,0.1-1.5,0.2-2.2,0.2c-8.7,0.4-10.2-1-10.2-9.8C470.5,51.2,470.5,49,470.5,46.4z"/>
	<path class="st0" d="M169.2,62.2c-5.8,1.1-5.9,1.1-7.3-4.3c-1.3-5.1-2.7-10.2-4-15.3c-0.3,0-0.7,0.1-1,0.1c0,6.5,0,13.1,0,19.8
		c-2.1,0-3.7,0-5.5,0c-0.1-1.1-0.3-2-0.3-3c0-11.8,0-23.5,0-35.3c0-2.1,0.1-3.5,2.9-3.5c2.8,0,2.9,1.6,2.9,3.5c0,3.5,0,7,0,10.6
		c0.3,0,0.7,0.1,1,0.1c1.1-3.4,2.2-6.7,3.3-10.1c1.5-4.6,1.8-4.8,7.3-3.6c-1.6,4.4-3.4,8.8-4.6,13.2c-0.6,2.3-0.8,5.1-0.2,7.4
		c1.4,5.9,3.3,11.6,5,17.5C168.9,60.3,169,61.3,169.2,62.2z"/>
	<path class="st0" d="M95.2,21c4.4,0,8.5-0.1,12.6,0c2.6,0.1,4.1,1.8,4.2,4.3c0.1,5.4,0.1,10.9,0,16.3c-0.1,2.9-1.8,4.5-4.7,4.8
		c-2,0.2-3.9,0.3-6.4,0.6c0,5.1,0,10.1,0,15.4c-2.2,0-3.8,0-5.7,0C95.2,48.7,95.2,35,95.2,21z M100.8,41.6c2.5,0.4,5,1.3,5.3-1.9
		c0.4-3.9,0.3-7.9,0-11.8c-0.1-0.7-1.9-1.7-2.9-1.8c-0.7-0.1-2.3,1.1-2.3,1.8C100.7,32.4,100.8,37,100.8,41.6z"/>
	<path class="st0" d="M225.1,62.5c-2.5,0-4.1,0-6.3,0c1.9-14.4-3.2-27.6-5.7-41.2c5.3-1.2,5.7-0.9,6.4,4.1c0.7,4.3,1.4,8.6,3,12.8
		c0.8-4.5,1.5-9,2.3-13.4c0.7-4.4,0.9-4.5,6-3.6C228.5,34.8,223.1,48,225.1,62.5z"/>
	<path class="st0" d="M297.2,25.2c-1.7,0.2-3.3,0.4-5.2,0.6c0,2,0,3.9,0,6c1.8,0.1,3.3,0.3,5.2,0.4c0,1.3,0,2.6,0,4.1
		c-1.6,0.1-3.2,0.3-5.1,0.4c0,6.9,0,13.7,0,20.7c1.7,0.2,3.4,0.4,5.3,0.6c0,1.4,0,2.7,0,4.3c-3.6,0-7.3,0-11.1,0
		c-0.1-0.7-0.4-1.4-0.4-2c0-12.1,0.1-24.2-0.1-36.3c0-2.7,1-3.5,3.5-3.3c1.6,0.1,3.2,0.1,4.8,0C297.6,20.4,298.1,22.2,297.2,25.2z"
		/>
	<path class="st0" d="M119.2,25.9c-1.8-0.2-3.1-0.4-4.5-0.6c0-1.3,0-2.6,0-4.6c4.3,0,8.8-0.2,13.1,0.2c0.8,0.1,1.5,2.3,2.5,4
		c-2.3,0.4-3.4,0.7-5.2,1c0,12,0,24.2,0,36.6c-2.2,0-3.7,0-6,0C119.2,50.2,119.2,38.1,119.2,25.9z"/>
	<path class="st0" d="M501,62.4c-1.4,0.1-2.1,0.3-2.8,0.3c-0.9,0-1.7-0.1-3-0.2c-0.1-1.4-0.2-2.7-0.2-4c0-9.4-0.1-18.8,0-28.2
		c0.1-3.2-0.3-5.4-4.1-5c-1-4.4-0.9-4.6,3.4-4.6c3.5,0,7.1,0,10.8,0c0,1.8,0,3.1,0,4.6c-1.4,0.2-2.6,0.4-4.2,0.6
		C501,38,501,50,501,62.4z"/>
	<path class="st0" d="M600.8,21.2c0,13.6,0,27.3,0,40.9c-5.4,1.2-5.7,1-5.6-4.2c0-10.9,0-21.8,0-32.7
		C595.2,20.4,595.5,20.2,600.8,21.2z"/>
	<path class="st0" d="M131.8,56.2c5.3-0.4,5.7,0.2,4.5,6.3c-1.4,0-2.8,0-4.5,0C131.8,60.3,131.8,58.3,131.8,56.2z"/>
</g>
</svg>
