<?xml version="1.0" encoding="utf-8"?>
<!-- Generator: Adobe Illustrator 19.0.0, SVG Export Plug-In . SVG Version: 6.00 Build 0)  -->
<svg version="1.1" id="Layer_1" xmlns="http://www.w3.org/2000/svg" xmlns:xlink="http://www.w3.org/1999/xlink" x="0px" y="0px"
	 viewBox="-717 975 100 100" style="enable-background:new -717 975 100 100;" xml:space="preserve">
<style type="text/css">
	.st0{fill:#FBAE17;}
	.st1{fill:#B27500;}
	.st2{fill:#191919;}
	.st3{fill:#FFFFFF;stroke:#191919;stroke-width:5.896;stroke-miterlimit:10;}
</style>
<g id="XMLID_29_">
	<polygon id="XMLID_45_" class="st0" points="-467.6,1008.3 -467.6,1041.1 -484.8,1031.1 -502.1,1041.1 -502.1,1028.2 	"/>
	<polygon id="XMLID_44_" class="st1" points="-433.1,1028.2 -433.1,1107.3 -450.4,1107.3 -450.4,1051 -467.6,1041.1 -467.6,1008.3 	
		"/>
	<path id="XMLID_33_" class="st1" d="M-479.1,1041.1v66.3h23v-53L-479.1,1041.1z M-472.4,1071.5l-3.2-1.9v-4.8l3.2,1.9V1071.5z
		 M-472.4,1062.6l-3.2-1.9v-4.8l3.2,1.9V1062.6z M-472.4,1053.7l-3.2-1.9v-4.8l3.2,1.9V1053.7z M-466,1075.2l-3.2-1.9v-4.8l3.2,1.9
		V1075.2z M-466,1066.3l-3.2-1.9v-4.8l3.2,1.9V1066.3z M-466,1057.4l-3.2-1.9v-4.8l3.2,1.9V1057.4z M-459.6,1078.9l-3.2-1.9v-4.8
		l3.2,1.9V1078.9z M-459.6,1070l-3.2-1.9v-4.8l3.2,1.9V1070z M-459.6,1061.1l-3.2-1.9v-4.8l3.2,1.9V1061.1z"/>
	<polygon id="XMLID_32_" class="st0" points="-504.8,1058.1 -504.8,1107.3 -524.7,1107.3 -524.7,1069.6 	"/>
	<polygon id="XMLID_31_" class="st1" points="-484.8,1069.6 -484.8,1107.3 -504.8,1107.3 -504.8,1058.1 	"/>
	<polygon id="XMLID_30_" class="st0" points="-504.8,1054.1 -490.6,1062.3 -490.6,1041.1 -513.6,1054.3 -513.6,1059.2 	"/>
</g>
<g id="XMLID_2_">
	<g id="XMLID_23_">
		<g id="XMLID_27_">
			<path id="XMLID_46_" class="st0" d="M-638.7,1020.5c-5.6,2.7-21.2,11.1-21.8,27.4c-0.5,13.9,4.2,21,4.2,21s12.5-0.7,22.4-8.4
				c8-6.2,12.8-15,11.1-28.2c-1.7-13.2-0.1-18.5-0.1-18.5S-632.8,1017.7-638.7,1020.5z"/>
			<path id="XMLID_28_" class="st1" d="M-622.7,1032.3c-1-7.5-0.3-15.6-0.1-18.5c-6.7,6.4-13.6,16.4-18.8,24.2
				c-3.6,5.4-6.7,11.2-9.1,17.2c-1.3,3.2-2.6,6.4-3.8,9.6c-0.5,1.3-0.9,2.7-1.5,4.1c2-0.2,13.2-1.4,22.1-8.4
				C-625.9,1054.3-621,1045.6-622.7,1032.3z"/>
		</g>
		<g id="XMLID_24_">
			<path id="XMLID_15_" class="st2" d="M-659.1,1070.1c0,0,0.3-0.7,0.8-1.9c0.5-1.2,1.2-2.9,2.1-4.9c1.8-4,4.4-9.2,7.3-14.3
				c0.7-1.3,1.4-2.5,2.2-3.8c0.7-1.2,1.5-2.4,2.2-3.6c0.7-1.2,1.4-2.3,2.1-3.3c0.7-1,1.3-2,2-2.9c0.6-0.9,1.2-1.7,1.7-2.4
				s1-1.3,1.4-1.8c0.8-1,1.2-1.6,1.2-1.6s-0.4,0.6-1.1,1.7c-0.3,0.5-0.7,1.2-1.2,1.9c-0.4,0.8-0.9,1.6-1.5,2.6
				c-0.6,0.9-1.1,2-1.7,3.1c-0.6,1.1-1.2,2.2-1.8,3.5c-0.6,1.2-1.2,2.5-1.8,3.7c-0.6,1.3-1.2,2.6-1.8,3.9
				c-2.3,5.3-4.3,10.6-5.7,14.7c-0.7,2-1.2,3.7-1.6,4.9c-0.4,1.2-0.6,1.9-0.6,1.9L-659.1,1070.1z"/>
		</g>
	</g>
	<g id="XMLID_1_">
		<g id="XMLID_4_">
			<path id="XMLID_6_" class="st3" d="M-686,999.3c7.9,3.7,30.2,15.6,31.1,38.9c0.8,19.7-5.7,29.8-5.7,29.8s-17.8-0.9-32-11.8
				c-11.4-8.7-18.4-21.2-16.1-39.9c2.3-18.8,0-26.3,0-26.3S-694.5,995.3-686,999.3z"/>
			<path id="XMLID_5_" class="st3" d="M-708.7,1016.3c1.3-10.6,0.4-22.2,0-26.3c9.6,9,19.4,23.2,26.9,34.2
				c5.2,7.6,9.6,15.9,13.1,24.4c1.9,4.5,3.7,9.1,5.4,13.7c0.7,1.9,1.4,3.9,2.1,5.8c-2.9-0.2-18.7-1.9-31.5-11.7
				C-704,1047.5-711,1035-708.7,1016.3z"/>
		</g>
	</g>
	<g id="XMLID_16_">
		<g id="XMLID_20_">
			<path id="XMLID_22_" class="st0" d="M-685.6,1000c7.9,3.7,30.2,15.6,31.1,38.9c0.8,19.7-5.7,29.8-5.7,29.8s-17.8-0.9-32-11.8
				c-11.4-8.7-18.4-21.2-16.1-39.9c2.3-18.8,0-26.3,0-26.3S-694.1,996-685.6,1000z"/>
			<path id="XMLID_21_" class="st1" d="M-708.3,1017c1.3-10.6,0.4-22.2,0-26.3c9.6,9,19.4,23.2,26.9,34.2
				c5.2,7.6,9.6,15.9,13.1,24.4c1.9,4.5,3.7,9.1,5.4,13.7c0.7,1.9,1.4,3.9,2.1,5.8c-2.9-0.2-18.7-1.9-31.5-11.7
				C-703.6,1048.2-710.6,1035.7-708.3,1017z"/>
		</g>
		<g id="XMLID_17_">
			<path id="XMLID_13_" class="st2" d="M-661.6,1072.2c0,0-0.3-1-0.8-2.6c-0.6-1.7-1.4-4.1-2.4-7c-0.5-1.4-1.1-3-1.7-4.6
				c-0.6-1.6-1.3-3.3-2-5.1c-0.7-1.8-1.5-3.6-2.3-5.4s-1.6-3.7-2.5-5.6s-1.7-3.7-2.6-5.5c-0.4-0.9-0.9-1.8-1.3-2.7
				c-0.5-0.9-0.9-1.7-1.4-2.6c-0.4-0.8-0.9-1.7-1.3-2.5c-0.5-0.8-0.9-1.6-1.3-2.4c-0.9-1.5-1.7-3-2.5-4.3c-0.8-1.3-1.5-2.5-2.2-3.6
				c-0.7-1-1.3-2-1.8-2.7c-1-1.5-1.6-2.4-1.6-2.4s0.6,0.8,1.7,2.2c0.5,0.7,1.2,1.6,2,2.6c0.7,1,1.5,2.2,2.4,3.4
				c0.9,1.2,1.8,2.7,2.8,4.1c0.5,0.7,1,1.5,1.5,2.3c0.5,0.8,1,1.6,1.5,2.4c0.5,0.8,1,1.7,1.6,2.5c0.5,0.9,1,1.7,1.5,2.6
				c1,1.7,2,3.5,3,5.4c1,1.8,2,3.6,2.9,5.4c0.9,1.8,1.8,3.6,2.7,5.3c0.8,1.7,1.7,3.4,2.4,5c0.8,1.6,1.5,3.1,2.1,4.6
				c1.3,2.8,2.3,5.2,3,6.9c0.6,1.8,1,2.8,1,2.8L-661.6,1072.2z"/>
		</g>
	</g>
</g>
</svg>
