<?xml version="1.0" encoding="utf-8"?>
<!-- Generator: Adobe Illustrator 19.0.0, SVG Export Plug-In . SVG Version: 6.00 Build 0)  -->
<svg version="1.1" id="Layer_1" xmlns="http://www.w3.org/2000/svg" xmlns:xlink="http://www.w3.org/1999/xlink" x="0px" y="0px"
	 viewBox="-717 975 100 100" style="enable-background:new -717 975 100 100;" xml:space="preserve">
<style type="text/css">
	.st0{fill:#B27500;}
	.st1{fill:#FBAE17;}
	.st2{fill:#FFFFFF;}
	.st3{fill:#FBAE17;stroke:#FFFFFF;stroke-width:5.896;stroke-miterlimit:10;}
	.st4{fill:#B27500;stroke:#FFFFFF;stroke-width:5.896;stroke-miterlimit:10;}
	.st5{fill:#FFFFFF;stroke:#191919;stroke-width:5;stroke-miterlimit:10;}
</style>
<g id="XMLID_11_">
	<path id="XMLID_7_" class="st0" d="M-680.2,1028.1l-33.2,33.2c-1.4,1.4-1.4,3.7,0,5.2l3,3c1.4,1.4,3.8,1.4,5.2,0l33.3-33.2
		L-680.2,1028.1z"/>
	<path id="XMLID_3_" class="st0" d="M-619.4,1011.9l-7-7c-1.1-1.1-3-0.9-4.2,0.3l-1,1l-1.2-1.2l1.3-1.3c1.3-1.2,1.4-3.1,0.3-4.2
		l-8.5-8.4c0,0-13.8-17.2-25.3-5.7c0,0,4.9-0.7,13.6,6.3l-6.3,6.3c-1.3,1.2-1.4,3.1-0.3,4.2l2,2c-0.2,0.1-0.5,0.3-0.7,0.5
		l-12.4,12.4l8.3,8.2l12.3-12.3c0.2-0.2,0.4-0.4,0.5-0.7l2,2c1.1,1.1,3,0.9,4.2-0.3l1.3-1.3l1.2,1.2l-1.6,1.6
		c-1.3,1.2-1.4,3.1-0.3,4.2l7,7c1.1,1.1,3,0.9,4.2-0.3l10.2-10.2C-618.5,1014.8-618.3,1012.9-619.4,1011.9z"/>
</g>
<g id="XMLID_29_">
	<polygon id="XMLID_45_" class="st1" points="-467.6,1008.3 -467.6,1041.1 -484.8,1031.1 -502.1,1041.1 -502.1,1028.2 	"/>
	<polygon id="XMLID_44_" class="st0" points="-433.1,1028.2 -433.1,1107.3 -450.4,1107.3 -450.4,1051 -467.6,1041.1 -467.6,1008.3 	
		"/>
	<path id="XMLID_33_" class="st0" d="M-479.1,1041.1v66.3h23v-53L-479.1,1041.1z M-472.4,1071.5l-3.2-1.9v-4.8l3.2,1.9V1071.5z
		 M-472.4,1062.6l-3.2-1.9v-4.8l3.2,1.9V1062.6z M-472.4,1053.7l-3.2-1.9v-4.8l3.2,1.9V1053.7z M-466,1075.2l-3.2-1.9v-4.8l3.2,1.9
		V1075.2z M-466,1066.3l-3.2-1.9v-4.8l3.2,1.9V1066.3z M-466,1057.4l-3.2-1.9v-4.8l3.2,1.9V1057.4z M-459.6,1078.9l-3.2-1.9v-4.8
		l3.2,1.9V1078.9z M-459.6,1070l-3.2-1.9v-4.8l3.2,1.9V1070z M-459.6,1061.1l-3.2-1.9v-4.8l3.2,1.9V1061.1z"/>
	<polygon id="XMLID_32_" class="st1" points="-504.8,1058.1 -504.8,1107.3 -524.7,1107.3 -524.7,1069.6 	"/>
	<polygon id="XMLID_31_" class="st0" points="-484.8,1069.6 -484.8,1107.3 -504.8,1107.3 -504.8,1058.1 	"/>
	<polygon id="XMLID_30_" class="st1" points="-504.8,1054.1 -490.6,1062.3 -490.6,1041.1 -513.6,1054.3 -513.6,1059.2 	"/>
</g>
<g id="XMLID_2_">
	<g id="XMLID_23_">
		<g id="XMLID_27_">
			<path id="XMLID_46_" class="st1" d="M-451.7,910.5c-5.6,2.7-21.2,11.1-21.8,27.4c-0.5,13.9,4.2,21,4.2,21s12.5-0.7,22.4-8.4
				c8-6.2,12.8-15,11.1-28.2c-1.7-13.2-0.1-18.5-0.1-18.5S-445.8,907.7-451.7,910.5z"/>
			<path id="XMLID_28_" class="st0" d="M-435.7,922.3c-1-7.5-0.3-15.6-0.1-18.5c-6.7,6.4-13.6,16.4-18.8,24.1
				c-3.6,5.4-6.7,11.2-9.1,17.2c-1.3,3.2-2.6,6.4-3.8,9.6c-0.5,1.3-0.9,2.7-1.5,4.1c2-0.2,13.2-1.4,22.1-8.4
				C-438.9,944.3-434,935.6-435.7,922.3z"/>
		</g>
		<g id="XMLID_24_">
			<path id="XMLID_15_" class="st2" d="M-472.1,960.1c0,0,0.3-0.7,0.8-1.9s1.2-2.9,2.1-4.9c1.8-4,4.4-9.2,7.3-14.3
				c0.7-1.3,1.4-2.5,2.2-3.8c0.7-1.2,1.5-2.4,2.2-3.6c0.7-1.2,1.4-2.3,2.1-3.3s1.3-2,2-2.9c0.6-0.9,1.2-1.7,1.7-2.4s1-1.3,1.4-1.8
				c0.8-1,1.2-1.6,1.2-1.6s-0.4,0.6-1.1,1.7c-0.3,0.5-0.7,1.2-1.2,1.9c-0.4,0.8-0.9,1.6-1.5,2.6c-0.6,0.9-1.1,2-1.7,3.1
				c-0.6,1.1-1.2,2.2-1.8,3.5c-0.6,1.2-1.2,2.5-1.8,3.7c-0.6,1.3-1.2,2.6-1.8,3.9c-2.3,5.3-4.3,10.6-5.7,14.7
				c-0.7,2-1.2,3.7-1.6,4.9c-0.4,1.2-0.6,1.9-0.6,1.9L-472.1,960.1z"/>
		</g>
	</g>
	<g id="XMLID_1_">
		<g id="XMLID_4_">
			<path id="XMLID_6_" class="st3" d="M-499,889.3c7.9,3.7,30.2,15.6,31.1,38.9c0.8,19.7-5.8,29.9-5.8,29.9s-17.8-0.9-32-11.8
				c-11.3-8.8-18.3-21.3-16-40c2.3-18.8,0-26.3,0-26.3S-507.5,885.3-499,889.3z"/>
			<path id="XMLID_5_" class="st4" d="M-521.7,906.3c1.3-10.6,0.4-22.2,0-26.3c9.6,9,19.4,23.2,26.9,34.2
				c5.2,7.6,9.6,15.9,13.1,24.4c1.9,4.5,3.7,9.1,5.4,13.7c0.7,1.9,1.4,3.9,2.1,5.8c-2.9-0.2-18.7-1.9-31.5-11.7
				C-517,937.5-524,925-521.7,906.3z"/>
		</g>
	</g>
	<g id="XMLID_16_">
		<g id="XMLID_20_">
			<path id="XMLID_22_" class="st1" d="M-499,889.3c7.9,3.7,30.2,15.6,31.1,38.9c0.8,19.7-5.8,29.9-5.8,29.9s-17.8-0.9-32-11.8
				c-11.3-8.8-18.3-21.3-16-40c2.3-18.8,0-26.3,0-26.3S-507.5,885.3-499,889.3z"/>
			<path id="XMLID_21_" class="st0" d="M-521.7,906.3c1.3-10.6,0.4-22.2,0-26.3c9.6,9,19.4,23.2,26.9,34.2
				c5.2,7.6,9.6,15.9,13.1,24.4c1.9,4.5,3.7,9.1,5.4,13.7c0.7,1.9,1.4,3.9,2.1,5.8c-2.9-0.2-18.7-1.9-31.5-11.7
				C-517,937.5-524,925-521.7,906.3z"/>
		</g>
		<g id="XMLID_17_">
			<path id="XMLID_13_" class="st2" d="M-475,961.5c0,0-0.3-1-0.8-2.6c-0.6-1.7-1.4-4.1-2.4-7c-0.5-1.4-1.1-3-1.7-4.6
				c-0.6-1.6-1.3-3.3-2-5.1s-1.5-3.6-2.3-5.4c-0.8-1.8-1.6-3.7-2.5-5.6c-0.9-1.9-1.7-3.7-2.6-5.5c-0.4-0.9-0.9-1.8-1.3-2.7
				c-0.5-0.9-0.9-1.7-1.4-2.6c-0.4-0.8-0.9-1.7-1.3-2.5c-0.5-0.8-0.9-1.6-1.3-2.4c-0.9-1.5-1.7-3-2.5-4.3s-1.5-2.5-2.2-3.6
				c-0.7-1-1.3-2-1.8-2.7c-1-1.5-1.6-2.4-1.6-2.4s0.6,0.8,1.7,2.2c0.5,0.7,1.2,1.6,2,2.6c0.7,1,1.5,2.2,2.4,3.4
				c0.9,1.2,1.8,2.7,2.8,4.1c0.5,0.7,1,1.5,1.5,2.3c0.5,0.8,1,1.6,1.5,2.4s1,1.7,1.6,2.5c0.5,0.9,1,1.7,1.5,2.6c1,1.7,2,3.5,3,5.4
				c1,1.8,2,3.6,2.9,5.4c0.9,1.8,1.8,3.6,2.7,5.3c0.8,1.7,1.7,3.4,2.4,5c0.8,1.6,1.5,3.1,2.1,4.6c1.3,2.8,2.3,5.2,3,6.9
				c0.7,1.7,1.1,2.7,1.1,2.7L-475,961.5z"/>
		</g>
	</g>
</g>
<path id="XMLID_9_" class="st5" d="M-630,1048c-1.5-2.5-3.6-4.9-6.3-6.1c-2.3-0.9-4.8-1.1-7.2-1.2c-2.2-0.2-4.6-0.5-6.3-2.1
	c-6.8-6.7-13.6-13.5-20.4-20.2c-3.5-3.5-7-7-10.6-10.4c-1.4-1.4-3-2.6-3.7-4.5c-0.8-2.1-0.7-4.5-1-6.7c-0.4-3.5-1.6-6.3-4.4-8.6
	c-3.1-2.7-7.1-4.4-11.3-4.7c-1.1-0.1-1.6,1.4-0.8,2.1c2.5,2.5,5,5,7.5,7.4c-0.4,2.9-0.9,5.8-1.3,8.8c-2.9,0.5-5.8,0.9-8.8,1.4
	c-2.5-2.5-5-5-7.5-7.4c-0.7-0.7-2.1-0.2-2.1,0.9c0.2,3,1.2,5.8,2.8,8.4c1.5,2.4,3.5,4.8,6.1,6c4.1,1.9,9.4,0.3,13.2,2.9
	c0.9,0.6,1.7,1.7,2.5,2.5c1,1,2.1,2,3.1,3.1c2.2,2.1,4.3,4.3,6.5,6.4c4.4,4.3,8.8,8.7,13.2,13c2.6,2.5,5.1,5,7.7,7.6
	c1.1,1.1,2,2.1,2.5,3.7c0.5,1.6,0.5,3.2,0.7,4.8c0.3,3.7,1.1,6.9,3.9,9.5c3.2,3,7.5,5,11.9,5.2c1.1,0.1,1.6-1.4,0.8-2.1
	c-2.5-2.5-5-5-7.5-7.4c0.4-2.9,0.9-5.8,1.3-8.8c2.9-0.5,5.8-0.9,8.8-1.4c2.5,2.5,5,5,7.5,7.4c0.7,0.7,2.1,0.2,2.1-0.9
	C-627.5,1053.5-628.5,1050.6-630,1048z"/>
<path id="XMLID_8_" class="st1" d="M-630.2,1048c-1.5-2.5-3.6-4.9-6.3-6.1c-2.3-0.9-4.8-1.1-7.2-1.2c-2.2-0.2-4.6-0.5-6.3-2.1
	c-6.8-6.7-13.6-13.5-20.4-20.2c-3.5-3.5-7-7-10.6-10.4c-1.4-1.4-3-2.6-3.7-4.5c-0.8-2.1-0.7-4.5-1-6.7c-0.4-3.5-1.6-6.3-4.4-8.6
	c-3.2-2.7-7.1-4.4-11.3-4.7c-1.1-0.1-1.6,1.4-0.8,2.1c2.5,2.5,5,5,7.5,7.4c-0.4,2.9-0.9,5.8-1.3,8.8c-2.9,0.5-5.8,0.9-8.8,1.4
	c-2.5-2.5-5-5-7.5-7.4c-0.7-0.7-2.1-0.2-2.1,0.9c0.2,3,1.2,5.8,2.8,8.4c1.5,2.4,3.5,4.8,6.1,6c4.2,1.6,9.4,0.1,13.2,2.7
	c0.9,0.6,1.7,1.7,2.5,2.5c1,1,2.1,2,3.1,3.1c2.2,2.1,4.3,4.3,6.5,6.4c4.4,4.3,8.8,8.7,13.2,13c2.6,2.5,5.1,5,7.7,7.6
	c1.1,1.1,2,2.1,2.5,3.7s0.5,3.2,0.7,4.8c0.3,3.7,1.1,6.9,3.9,9.5c3.2,3,7.5,5,11.9,5.2c1.1,0.1,1.6-1.4,0.8-2.1
	c-2.5-2.5-5-5-7.5-7.4c0.4-2.9,0.9-5.8,1.3-8.8c2.9-0.5,5.8-0.9,8.8-1.4c2.5,2.5,5,5,7.5,7.4c0.7,0.7,2.1,0.2,2.1-0.9
	C-627.7,1053.4-628.6,1050.6-630.2,1048z"/>
</svg>
